# xmcd CD database file generated by OrangeCD 5.2
#
# Track frame offsets:
#	182
#	28515
#	49525
#	59075
#
# Disc length: 1116 seconds
#
# Revision: 2
# Processed by: cddbd v1.5PL3 Copyright (c) Steve Scherf et al.
# Submitted via: OrangeCD 5.2
#
DISCID=2f045a04
DTITLE=Luna - Bonnie And Clyde/Chinatown
DYEAR=1995
DGENRE=Blues
TTITLE0=Bonnie And Clyde (The Bonnie Parker Version)
TTITLE1=Chinatown
TTITLE2=Thank You For Sending Me An Angel
TTITLE3=Bonnie And Clyde (The Clyde Barrow Version)
EXTD=
EXTT0=
EXTT1=
EXTT2=
EXTT3=
PLAYORDER=
